HIERARCHY
ROOT reference
{
  OFFSET 0 0 0
  CHANNELS 6 Xposition Yposition Zposition Zrotation Xrotation Yrotation
  JOINT Hips
  {
    OFFSET 366.965 89.8555 201.872
    CHANNELS 3 Zrotation Xrotation Yrotation
    JOINT RightUpLeg
    {
      OFFSET -9.27238 -1.56811 0.0123499
      CHANNELS 3 Zrotation Xrotation Yrotation
      JOINT RightLeg
      {
        OFFSET 0.00682797 -41.8882 0.0419786
        CHANNELS 3 Zrotation Xrotation Yrotation
        JOINT RightFoot
        {
          OFFSET 0.530869 -42.1265 0.242224
          CHANNELS 3 Zrotation Xrotation Yrotation
          End Site
          {
            OFFSET 0 -7.69 17.5
          }
        }
      }
    }
    JOINT LeftUpLeg
    {
      OFFSET 9.28391 -1.61639 -0.0258413
      CHANNELS 3 Zrotation Xrotation Yrotation
      JOINT LeftLeg
      {
        OFFSET 0.0291166 -41.8727 -0.014263
        CHANNELS 3 Zrotation Xrotation Yrotation
        JOINT LeftFoot
        {
          OFFSET -0.125672 -41.4933 -0.195947
          CHANNELS 3 Zrotation Xrotation Yrotation
          End Site
          {
            OFFSET 0 -7.69 17.5
          }
        }
      }
    }
    JOINT Spine
    {
      OFFSET 0.0325614 14.2957 0.0242834
      CHANNELS 3 Zrotation Xrotation Yrotation
      JOINT Spine1
      {
        OFFSET 0.00746153 9.71731 0.0172653
        CHANNELS 3 Zrotation Xrotation Yrotation
        JOINT Spine2
        {
          OFFSET 0.0283815 10.1155 -0.00252583
          CHANNELS 3 Zrotation Xrotation Yrotation
          JOINT Spine3
          {
            OFFSET 0.0279172 9.71841 -0.00465252
            CHANNELS 3 Zrotation Xrotation Yrotation
            JOINT Neck
            {
              OFFSET 0.0182001 10.3765 0.0184284
              CHANNELS 3 Zrotation Xrotation Yrotation
              JOINT Head
              {
                OFFSET 0.0113688 9.47343 0.00632939
                CHANNELS 3 Zrotation Xrotation Yrotation
                End Site
                {
                  OFFSET 0 15.95 0
                }
              }
            }
            JOINT RightShoulder
            {
              OFFSET -3.17351 6.93492 0.00767284
              CHANNELS 3 Zrotation Xrotation Yrotation
              JOINT RightArm
              {
                OFFSET -12.7835 -0.0133269 0.0174019
                CHANNELS 3 Zrotation Xrotation Yrotation
                JOINT RightForeArm
                {
                  OFFSET -26.5112 -0.0170228 0.0247955
                  CHANNELS 3 Zrotation Xrotation Yrotation
                  JOINT RightHand
                  {
                    OFFSET -25.9918 -0.0199622 0.0218897
                    CHANNELS 3 Zrotation Xrotation Yrotation
                    JOINT RightHandThumb1
                    {
                      OFFSET -2.48905 0.190105 3.12053
                      CHANNELS 3 Zrotation Xrotation Yrotation
                      JOINT RightHandThumb2
                      {
                        OFFSET -3.68274 0 0
                        CHANNELS 3 Zrotation Xrotation Yrotation
                        JOINT RightHandThumb3
                        {
                          OFFSET -2.55832 0 0
                          CHANNELS 3 Zrotation Xrotation Yrotation
                          End Site
                          {
                            OFFSET -2.194 0 0
                          }
                        }
                      }
                    }
                    JOINT RightInHandIndex
                    {
                      OFFSET -3.22368 0.508421 1.97842
                      CHANNELS 3 Zrotation Xrotation Yrotation
                      JOINT RightHandIndex1
                      {
                        OFFSET -5.21684 -0.091368 0.999158
                        CHANNELS 3 Zrotation Xrotation Yrotation
                        JOINT RightHandIndex2
                        {
                          OFFSET -3.61937 0 0
                          CHANNELS 3 Zrotation Xrotation Yrotation
                          JOINT RightHandIndex3
                          {
                            OFFSET -2.0521 0 0
                            CHANNELS 3 Zrotation Xrotation Yrotation
                            End Site
                            {
                              OFFSET -1.805 0 0
                            }
                          }
                        }
                      }
                    }
                    JOINT RightInHandMiddle
                    {
                      OFFSET -3.38211 0.517263 0.756737
                      CHANNELS 3 Zrotation Xrotation Yrotation
                      JOINT RightHandMiddle1
                      {
                        OFFSET -5.17411 -0.084 0.313895
                        CHANNELS 3 Zrotation Xrotation Yrotation
                        JOINT RightHandMiddle2
                        {
                          OFFSET -3.94947 0 0
                          CHANNELS 3 Zrotation Xrotation Yrotation
                          JOINT RightHandMiddle3
                          {
                            OFFSET -2.47579 0 0
                            CHANNELS 3 Zrotation Xrotation Yrotation
                            End Site
                            {
                              OFFSET -1.975 0 0
                            }
                          }
                        }
                      }
                    }
                    JOINT RightInHandRing
                    {
                      OFFSET -3.36516 0.537895 -0.128947
                      CHANNELS 3 Zrotation Xrotation Yrotation
                      JOINT RightHandRing1
                      {
                        OFFSET -4.63474 -0.022105 -0.478947
                        CHANNELS 3 Zrotation Xrotation Yrotation
                        JOINT RightHandRing2
                        {
                          OFFSET -3.44238 0 0
                          CHANNELS 3 Zrotation Xrotation Yrotation
                          JOINT RightHandRing3
                          {
                            OFFSET -2.3881 0 0
                            CHANNELS 3 Zrotation Xrotation Yrotation
                            End Site
                            {
                              OFFSET -1.857 0 0
                            }
                          }
                        }
                      }
                    }
                    JOINT RightInHandPinky
                    {
                      OFFSET -3.16105 0.469368 -1.20179
                      CHANNELS 3 Zrotation Xrotation Yrotation
                      JOINT RightHandPinky1
                      {
                        OFFSET -4.14105 -0.022105 -1.09053
                        CHANNELS 3 Zrotation Xrotation Yrotation
                        JOINT RightHandPinky2
                        {
                          OFFSET -2.75653 0 0
                          CHANNELS 3 Zrotation Xrotation Yrotation
                          JOINT RightHandPinky3
                          {
                            OFFSET -1.74189 0 0
                            CHANNELS 3 Zrotation Xrotation Yrotation
                            End Site
                            {
                              OFFSET -1.645 0 0
                            }
                          }
                        }
                      }
                    }
                  }
                }
              }
            }
            JOINT LeftShoulder
            {
              OFFSET 3.23633 6.91116 -0.0162332
              CHANNELS 3 Zrotation Xrotation Yrotation
              JOINT LeftArm
              {
                OFFSET 12.8112 -0.0136289 -0.0286256
                CHANNELS 3 Zrotation Xrotation Yrotation
                JOINT LeftForeArm
                {
                  OFFSET 26.502 -0.0235899 -0.00806802
                  CHANNELS 3 Zrotation Xrotation Yrotation
                  JOINT LeftHand
                  {
                    OFFSET 25.9974 -0.0321613 -0.027004
                    CHANNELS 3 Zrotation Xrotation Yrotation
                    JOINT LeftHandThumb1
                    {
                      OFFSET 2.48905 0.190105 3.12053
                      CHANNELS 3 Zrotation Xrotation Yrotation
                      JOINT LeftHandThumb2
                      {
                        OFFSET 3.68274 0 0
                        CHANNELS 3 Zrotation Xrotation Yrotation
                        JOINT LeftHandThumb3
                        {
                          OFFSET 2.55832 0 0
                          CHANNELS 3 Zrotation Xrotation Yrotation
                          End Site
                          {
                            OFFSET 2.194 0 0
                          }
                        }
                      }
                    }
                    JOINT LeftInHandIndex
                    {
                      OFFSET 3.22368 0.508421 1.97842
                      CHANNELS 3 Zrotation Xrotation Yrotation
                      JOINT LeftHandIndex1
                      {
                        OFFSET 5.21684 -0.091368 0.999158
                        CHANNELS 3 Zrotation Xrotation Yrotation
                        JOINT LeftHandIndex2
                        {
                          OFFSET 3.61937 0 0
                          CHANNELS 3 Zrotation Xrotation Yrotation
                          JOINT LeftHandIndex3
                          {
                            OFFSET 2.0521 0 0
                            CHANNELS 3 Zrotation Xrotation Yrotation
                            End Site
                            {
                              OFFSET 1.805 0 0
                            }
                          }
                        }
                      }
                    }
                    JOINT LeftInHandMiddle
                    {
                      OFFSET 3.38211 0.517263 0.756737
                      CHANNELS 3 Zrotation Xrotation Yrotation
                      JOINT LeftHandMiddle1
                      {
                        OFFSET 5.17411 -0.084 0.313895
                        CHANNELS 3 Zrotation Xrotation Yrotation
                        JOINT LeftHandMiddle2
                        {
                          OFFSET 3.94947 0 0
                          CHANNELS 3 Zrotation Xrotation Yrotation
                          JOINT LeftHandMiddle3
                          {
                            OFFSET 2.47579 0 0
                            CHANNELS 3 Zrotation Xrotation Yrotation
                            End Site
                            {
                              OFFSET 1.975 0 0
                            }
                          }
                        }
                      }
                    }
                    JOINT LeftInHandRing
                    {
                      OFFSET 3.36516 0.537895 -0.128947
                      CHANNELS 3 Zrotation Xrotation Yrotation
                      JOINT LeftHandRing1
                      {
                        OFFSET 4.63474 -0.022105 -0.478947
                        CHANNELS 3 Zrotation Xrotation Yrotation
                        JOINT LeftHandRing2
                        {
                          OFFSET 3.44238 0 0
                          CHANNELS 3 Zrotation Xrotation Yrotation
                          JOINT LeftHandRing3
                          {
                            OFFSET 2.3881 0 0
                            CHANNELS 3 Zrotation Xrotation Yrotation
                            End Site
                            {
                              OFFSET 1.857 0 0
                            }
                          }
                        }
                      }
                    }
                    JOINT LeftInHandPinky
                    {
                      OFFSET 3.16105 0.469368 -1.20179
                      CHANNELS 3 Zrotation Xrotation Yrotation
                      JOINT LeftHandPinky1
                      {
                        OFFSET 4.14105 -0.022105 -1.09053
                        CHANNELS 3 Zrotation Xrotation Yrotation
                        JOINT LeftHandPinky2
                        {
                          OFFSET 2.75653 0 0
                          CHANNELS 3 Zrotation Xrotation Yrotation
                          JOINT LeftHandPinky3
                          {
                            OFFSET 1.74189 0 0
                            CHANNELS 3 Zrotation Xrotation Yrotation
                            End Site
                            {
                              OFFSET 1.645 0 0
                            }
                          }
                        }
                      }
                    }
                  }
                }
              }
            }
          }
        }
      }
    }
  }
}
MOTION
Frames: 2
Frame Time: 0.00833333
7.500000000000000000e+02 0.000000000000000000e+00 0.000000000000000000e+00 0.000000000000000000e+00 0.000000000000000000e+00 0.000000000000000000e+00 2.042637077660998557e+00 8.011761653182801979e+00 1.372030225116622937e+01 -1.111666451323147342e+01 -1.017872702169205645e+01 -1.555510657873835356e+01 3.558781044316308151e-01 8.727607074520570052e+00 -3.420203669704775518e+00 3.178483296658101143e+00 -7.245225193020995214e+00 -6.586880827442607611e+00 -2.504705177020609241e+00 -1.210572277364345695e+01 -8.950280919303230220e+00 7.509168127678240268e+00 -2.809394757183437452e+00 -7.944024115808657527e+00 -4.397957830985562921e+00 5.039545074367032917e+00 -2.052058991150818912e+00 1.420613605200273577e+00 4.175279147685055037e+00 -2.311040532495969302e+00 4.110437300761088375e-01 1.231762371691182079e+00 -5.886055517670546466e-01 6.667226719286240000e-01 2.005552938888803816e+00 -7.929528063695170381e-01 2.692181200706533772e-01 -4.611429630733022283e-02 -4.974854752242928724e-01 -1.639634415561831149e-01 4.834866348976279427e-01 1.981135894500875572e-01 3.981760540153679528e+00 -4.353212843791705033e+00 -8.882596251311383639e+00 7.491353700463904142e-01 -5.901874469540187462e+00 1.674439590144270129e+00 -9.258861001212781439e-02 1.691743969734520547e+01 7.726428627389310577e+00 -2.296485877083869909e+01 -1.942461925631152297e+01 -4.372531728549889607e+01 -7.602147484033636715e-01 -2.559574262305444048e+00 -4.031695012939480627e+00 0.000000000000000000e+00 0.000000000000000000e+00 0.000000000000000000e+00 1.197431138771860525e-15 2.259532466337812058e-15 0.000000000000000000e+00 -1.946455642351894200e-15 3.902972540218638549e-16 0.000000000000000000e+00 4.444925126314390100e-15 -1.037875652416668490e-15 1.860386562207284159e-15 0.000000000000000000e+00 0.000000000000000000e+00 0.000000000000000000e+00 0.000000000000000000e+00 1.974698089592262124e-15 2.115745555089112614e-15 0.000000000000000000e+00 4.318929442514394990e-15 8.437613341620084081e-15 4.444925126314390100e-15 -1.037875652416668490e-15 1.860386562207284159e-15 0.000000000000000000e+00 -9.640185342848428636e-16 -4.155511362014720877e-15 0.000000000000000000e+00 1.801071082102786545e-15 2.231645679331917519e-15 0.000000000000000000e+00 4.497444860609866671e-15 6.137084859352135198e-15 4.444925126314390100e-15 -1.037875652416668490e-15 1.860386562207284159e-15 0.000000000000000000e+00 0.000000000000000000e+00 0.000000000000000000e+00 0.000000000000000000e+00 3.452366333546058352e-16 1.322319950809584052e-15 0.000000000000000000e+00 1.645502805467922217e-15 7.992799875704276926e-15 4.444925126314390100e-15 -1.037875652416668490e-15 1.860386562207284159e-15 0.000000000000000000e+00 0.000000000000000000e+00 0.000000000000000000e+00 0.000000000000000000e+00 -6.612675789391495545e-16 -1.373094041075458465e-16 0.000000000000000000e+00 2.327053169663363902e-15 4.127752885089331737e-15 3.211951764226737893e+00 2.018274229189776225e-01 5.904300935805582462e+00 -1.594035455239662724e+00 5.862844518846838326e+00 8.909835594151809701e+00 2.225138471225050818e+00 -2.886297220427639942e+01 2.448118616979757434e+01 -2.149806462958159248e+00 -3.037133076137293664e+00 3.113162282171921369e+00 0.000000000000000000e+00 0.000000000000000000e+00 0.000000000000000000e+00 -4.146686318639214357e-15 -4.061620945144213778e-15 0.000000000000000000e+00 2.180232562253427583e-15 -1.405392854583240271e-15 0.000000000000000000e+00 2.438116989582177075e-15 2.332818489770338319e-15 -2.525413026607419266e-15 0.000000000000000000e+00 0.000000000000000000e+00 0.000000000000000000e+00 0.000000000000000000e+00 -3.843112228541899713e-16 -5.473640241259837974e-15 0.000000000000000000e+00 1.162215516674622130e-15 -1.288684297931109214e-15 2.438116989582177075e-15 2.332818489770338319e-15 -2.525413026607419266e-15 0.000000000000000000e+00 -4.738493993422745078e-16 -1.505190655755439817e-15 0.000000000000000000e+00 -2.400463962337849678e-15 -2.963943391727833343e-15 0.000000000000000000e+00 -2.474941869034456733e-16 -8.784480960281819902e-15 2.438116989582177075e-15 2.332818489770338319e-15 -2.525413026607419266e-15 0.000000000000000000e+00 0.000000000000000000e+00 0.000000000000000000e+00 0.000000000000000000e+00 -2.277572270065828111e-15 -1.703931410851069493e-15 0.000000000000000000e+00 -2.926227754718677442e-15 -4.993251450758927744e-15 2.438116989582177075e-15 2.332818489770338319e-15 -2.525413026607419266e-15 0.000000000000000000e+00 0.000000000000000000e+00 0.000000000000000000e+00 0.000000000000000000e+00 -8.911914415307825442e-16 -4.956544357230853555e-15 0.000000000000000000e+00 -1.927348135824423535e-15 -5.958928754409350855e-15
7.500000000000000000e+02 0.000000000000000000e+00 0.000000000000000000e+00 0.000000000000000000e+00 0.000000000000000000e+00 0.000000000000000000e+00 2.093019952132003869e+00 8.170774107856015434e+00 1.393959631307990676e+01 -1.134393789078537473e+01 -1.046071701390183151e+01 -1.583677937974099770e+01 3.806731192016472032e-01 8.885921960131552666e+00 -3.474292255233734306e+00 3.281038434225320710e+00 -7.360185084599512706e+00 -6.737547828160056262e+00 -2.585583701442795146e+00 -1.243983928654791704e+01 -9.135561910427892229e+00 7.672386026290407557e+00 -2.781023795043014335e+00 -8.058278956556176098e+00 -4.459030904896561509e+00 5.139413203276007813e+00 -2.106610998560657144e+00 1.505546631281831971e+00 4.261153654640452260e+00 -2.438165085530442422e+00 4.306267174458919822e-01 1.261291521321241005e+00 -6.215119870805453361e-01 6.997462468104933553e-01 2.056590400960852438e+00 -8.442578229987327543e-01 2.692807660678245840e-01 -4.650901599298962186e-02 -4.995600926404349940e-01 -1.777161241799841696e-01 5.042476946580051189e-01 1.241288434300761301e-01 3.978058900414903398e+00 -4.448376627796041483e+00 -8.859525591343393458e+00 8.097037199708786437e-01 -5.985530269568121398e+00 1.628189493427480317e+00 3.749679733588398012e-01 1.707794161654246068e+01 7.804637405996948551e+00 -2.285256872540739437e+01 -1.951961096837309739e+01 -4.385999726042574309e+01 -8.159294696000594094e-01 -2.641068461530751144e+00 -3.810588421712481910e+00 0.000000000000000000e+00 0.000000000000000000e+00 0.000000000000000000e+00 1.175724590342936043e-15 2.309352792806877774e-15 0.000000000000000000e+00 -1.995416572993515934e-15 4.362504543849570082e-16 0.000000000000000000e+00 4.526779208960928106e-15 -1.000377607264282774e-15 1.851752947236185612e-15 0.000000000000000000e+00 0.000000000000000000e+00 0.000000000000000000e+00 0.000000000000000000e+00 2.080695792453123948e-15 2.309847223632014966e-15 0.000000000000000000e+00 4.285721809220428150e-15 8.456109649171360906e-15 4.526779208960928106e-15 -1.000377607264282774e-15 1.851752947236185612e-15 0.000000000000000000e+00 -9.783587261924238220e-16 -4.073699095543772940e-15 0.000000000000000000e+00 1.875286777478559882e-15 2.546079270408154938e-15 0.000000000000000000e+00 4.552610128664479404e-15 6.318313908679916215e-15 4.526779208960928106e-15 -1.000377607264282774e-15 1.851752947236185612e-15 0.000000000000000000e+00 0.000000000000000000e+00 0.000000000000000000e+00 0.000000000000000000e+00 4.729635786175017828e-16 1.662936928675143135e-15 0.000000000000000000e+00 1.565087726073780871e-15 8.020134840329808092e-15 4.526779208960928106e-15 -1.000377607264282774e-15 1.851752947236185612e-15 0.000000000000000000e+00 0.000000000000000000e+00 0.000000000000000000e+00 0.000000000000000000e+00 -3.823557898418862259e-16 8.504900092269633874e-16 0.000000000000000000e+00 2.343992397448015264e-15 4.333652552544814850e-15 3.258483020970236677e+00 1.803361875335046660e-01 5.955210808254359556e+00 -1.474539612538562139e+00 6.065926854485801378e+00 8.933334952730660916e+00 2.364606974578808973e+00 -2.873688526265918952e+01 2.521298729920251702e+01 -2.226945556959991190e+00 -3.093769166250794900e+00 3.265585370750598404e+00 0.000000000000000000e+00 0.000000000000000000e+00 0.000000000000000000e+00 -4.069418539867584208e-15 -4.130194634947858779e-15 0.000000000000000000e+00 2.170996351744704970e-15 -1.503933400526189496e-15 0.000000000000000000e+00 2.427386565314021480e-15 2.334220424223527973e-15 -2.522590048577544777e-15 0.000000000000000000e+00 0.000000000000000000e+00 0.000000000000000000e+00 0.000000000000000000e+00 -3.930428498768038414e-16 -5.584885582375956676e-15 0.000000000000000000e+00 1.125886868514444172e-15 -1.382168740076170796e-15 2.427386565314021480e-15 2.334220424223527973e-15 -2.522590048577544777e-15 0.000000000000000000e+00 -4.438548841752335111e-16 -1.527320419342526698e-15 0.000000000000000000e+00 -2.358076582186712248e-15 -3.006305475633350941e-15 0.000000000000000000e+00 -3.095857104033340308e-16 -8.818882196142266485e-15 2.427386565314021480e-15 2.334220424223527973e-15 -2.522590048577544777e-15 0.000000000000000000e+00 0.000000000000000000e+00 0.000000000000000000e+00 0.000000000000000000e+00 -2.227402689433067927e-15 -1.803317637422856420e-15 0.000000000000000000e+00 -2.978183548061366398e-15 -5.078948888857423753e-15 2.427386565314021480e-15 2.334220424223527973e-15 -2.522590048577544777e-15 0.000000000000000000e+00 0.000000000000000000e+00 0.000000000000000000e+00 0.000000000000000000e+00 -8.845794222302587502e-16 -5.033937229349556983e-15 0.000000000000000000e+00 -1.870964425642633237e-15 -5.960525838103441718e-15
